<mxfile host="app.diagrams.net" agent="Mozilla/5.0 (Windows NT 10.0; Win64; x64) AppleWebKit/537.36 (KHTML, like Gecko) Chrome/131.0.0.0 Safari/537.36" version="26.0.8">
  <diagram id="C5RBs43oDa-KdzZeNtuy" name="Page-1">
    <mxGraphModel dx="1050" dy="565" grid="1" gridSize="10" guides="1" tooltips="1" connect="1" arrows="1" fold="1" page="1" pageScale="1" pageWidth="827" pageHeight="1169" math="0" shadow="0">
      <root>
        <mxCell id="WIyWlLk6GJQsqaUBKTNV-0" />
        <mxCell id="WIyWlLk6GJQsqaUBKTNV-1" parent="WIyWlLk6GJQsqaUBKTNV-0" />
        <mxCell id="ysxb9247P412SWngwB5w-10" style="edgeStyle=orthogonalEdgeStyle;rounded=0;orthogonalLoop=1;jettySize=auto;html=1;exitX=0.5;exitY=1;exitDx=0;exitDy=0;" edge="1" parent="WIyWlLk6GJQsqaUBKTNV-1" source="ysxb9247P412SWngwB5w-0" target="ysxb9247P412SWngwB5w-9">
          <mxGeometry relative="1" as="geometry" />
        </mxCell>
        <mxCell id="ysxb9247P412SWngwB5w-0" value="Start" style="ellipse;whiteSpace=wrap;html=1;" vertex="1" parent="WIyWlLk6GJQsqaUBKTNV-1">
          <mxGeometry x="354" y="20" width="120" height="60" as="geometry" />
        </mxCell>
        <mxCell id="ysxb9247P412SWngwB5w-13" style="edgeStyle=orthogonalEdgeStyle;rounded=0;orthogonalLoop=1;jettySize=auto;html=1;exitX=0.5;exitY=1;exitDx=0;exitDy=0;entryX=0.5;entryY=0;entryDx=0;entryDy=0;" edge="1" parent="WIyWlLk6GJQsqaUBKTNV-1" source="ysxb9247P412SWngwB5w-1" target="ysxb9247P412SWngwB5w-2">
          <mxGeometry relative="1" as="geometry" />
        </mxCell>
        <mxCell id="ysxb9247P412SWngwB5w-1" value="input route miles" style="shape=parallelogram;perimeter=parallelogramPerimeter;whiteSpace=wrap;html=1;fixedSize=1;" vertex="1" parent="WIyWlLk6GJQsqaUBKTNV-1">
          <mxGeometry x="354" y="260" width="120" height="40" as="geometry" />
        </mxCell>
        <mxCell id="ysxb9247P412SWngwB5w-2" value="input route speed" style="shape=parallelogram;perimeter=parallelogramPerimeter;whiteSpace=wrap;html=1;fixedSize=1;" vertex="1" parent="WIyWlLk6GJQsqaUBKTNV-1">
          <mxGeometry x="354" y="320" width="120" height="40" as="geometry" />
        </mxCell>
        <mxCell id="ysxb9247P412SWngwB5w-12" style="edgeStyle=orthogonalEdgeStyle;rounded=0;orthogonalLoop=1;jettySize=auto;html=1;exitX=0.5;exitY=1;exitDx=0;exitDy=0;entryX=0.5;entryY=0;entryDx=0;entryDy=0;" edge="1" parent="WIyWlLk6GJQsqaUBKTNV-1" source="ysxb9247P412SWngwB5w-8" target="ysxb9247P412SWngwB5w-1">
          <mxGeometry relative="1" as="geometry" />
        </mxCell>
        <mxCell id="ysxb9247P412SWngwB5w-8" value="doagain&amp;nbsp;&lt;div&gt;==&amp;nbsp;&lt;div&gt;&quot;y&quot;&lt;/div&gt;&lt;/div&gt;" style="rhombus;whiteSpace=wrap;html=1;" vertex="1" parent="WIyWlLk6GJQsqaUBKTNV-1">
          <mxGeometry x="367" y="170" width="94" height="80" as="geometry" />
        </mxCell>
        <mxCell id="ysxb9247P412SWngwB5w-11" style="edgeStyle=orthogonalEdgeStyle;rounded=0;orthogonalLoop=1;jettySize=auto;html=1;exitX=0.5;exitY=1;exitDx=0;exitDy=0;" edge="1" parent="WIyWlLk6GJQsqaUBKTNV-1" source="ysxb9247P412SWngwB5w-9" target="ysxb9247P412SWngwB5w-8">
          <mxGeometry relative="1" as="geometry" />
        </mxCell>
        <mxCell id="ysxb9247P412SWngwB5w-9" value="assign &quot;y&quot; to doagain" style="rounded=0;whiteSpace=wrap;html=1;" vertex="1" parent="WIyWlLk6GJQsqaUBKTNV-1">
          <mxGeometry x="354" y="90" width="120" height="60" as="geometry" />
        </mxCell>
        <mxCell id="ysxb9247P412SWngwB5w-15" style="edgeStyle=orthogonalEdgeStyle;rounded=0;orthogonalLoop=1;jettySize=auto;html=1;exitX=1;exitY=0.5;exitDx=0;exitDy=0;" edge="1" parent="WIyWlLk6GJQsqaUBKTNV-1" source="ysxb9247P412SWngwB5w-14">
          <mxGeometry relative="1" as="geometry">
            <mxPoint x="464" y="210" as="targetPoint" />
            <Array as="points">
              <mxPoint x="681" y="510" />
              <mxPoint x="681" y="210" />
            </Array>
          </mxGeometry>
        </mxCell>
        <mxCell id="ysxb9247P412SWngwB5w-16" value="yes" style="edgeLabel;html=1;align=center;verticalAlign=middle;resizable=0;points=[];" vertex="1" connectable="0" parent="ysxb9247P412SWngwB5w-15">
          <mxGeometry x="-0.6955" y="1" relative="1" as="geometry">
            <mxPoint as="offset" />
          </mxGeometry>
        </mxCell>
        <mxCell id="ysxb9247P412SWngwB5w-14" value="ask user if they have more routes" style="shape=parallelogram;perimeter=parallelogramPerimeter;whiteSpace=wrap;html=1;fixedSize=1;" vertex="1" parent="WIyWlLk6GJQsqaUBKTNV-1">
          <mxGeometry x="354" y="480" width="120" height="60" as="geometry" />
        </mxCell>
      </root>
    </mxGraphModel>
  </diagram>
</mxfile>
